# xmcd
#
# Track frame offsets: 
#        150
#        14603
#        32293
#        49457
#        63362
#        77429
#        97439
#        116343
#        134256
#        151012
#        163187
#
# Disc length: 2372 seconds
#
# Revision: 0
# Processed by: cddbd v1.5.2PL0 Copyright (c) Steve Scherf et al.
# Submitted via: ExactAudioCopy v0.99pb5
#
DISCID=8809420b
DTITLE=Simon J Alpin - On The Wire
DYEAR=2007
DGENRE=Country
TTITLE0=Row To Hoe
TTITLE1=Right Words
TTITLE2=Won't Stop
TTITLE3=Heading Out
TTITLE4=The Pass
TTITLE5=Here With Me
TTITLE6=John Doe
TTITLE7=On The Run
TTITLE8=Inside
TTITLE9=All Out
TTITLE10=All Talk
EXTD=
EXTT0=
EXTT1=
EXTT2=
EXTT3=
EXTT4=
EXTT5=
EXTT6=
EXTT7=
EXTT8=
EXTT9=
EXTT10=
PLAYORDER=
